<mxfile host="app.diagrams.net" modified="2024-01-27T17:26:45.730Z" agent="Mozilla/5.0 (X11; Ubuntu; Linux x86_64; rv:122.0) Gecko/20100101 Firefox/122.0" etag="wInTBccDWJJNd6C-1Oxi" version="23.0.2" type="github">
  <diagram name="Page-1" id="I7xc5j70TLK0VO-wYfFK">
    <mxGraphModel dx="546" dy="318" grid="1" gridSize="10" guides="1" tooltips="1" connect="1" arrows="1" fold="1" page="1" pageScale="1" pageWidth="850" pageHeight="1100" math="0" shadow="0">
      <root>
        <mxCell id="0" />
        <mxCell id="1" parent="0" />
        <mxCell id="m1UoJA5h-3axytS2Gg8Y-1" value="&lt;div&gt;User&lt;/div&gt;" style="whiteSpace=wrap;html=1;align=center;" vertex="1" parent="1">
          <mxGeometry x="150" y="110" width="100" height="40" as="geometry" />
        </mxCell>
        <mxCell id="m1UoJA5h-3axytS2Gg8Y-8" style="rounded=0;orthogonalLoop=1;jettySize=auto;html=1;entryX=0.25;entryY=0;entryDx=0;entryDy=0;endArrow=none;endFill=0;" edge="1" parent="1" source="m1UoJA5h-3axytS2Gg8Y-2" target="m1UoJA5h-3axytS2Gg8Y-1">
          <mxGeometry relative="1" as="geometry" />
        </mxCell>
        <mxCell id="m1UoJA5h-3axytS2Gg8Y-2" value="username" style="ellipse;whiteSpace=wrap;html=1;align=center;" vertex="1" parent="1">
          <mxGeometry x="90" y="20" width="100" height="40" as="geometry" />
        </mxCell>
        <mxCell id="m1UoJA5h-3axytS2Gg8Y-9" style="rounded=0;orthogonalLoop=1;jettySize=auto;html=1;entryX=0.75;entryY=0;entryDx=0;entryDy=0;endArrow=none;endFill=0;" edge="1" parent="1" source="m1UoJA5h-3axytS2Gg8Y-3" target="m1UoJA5h-3axytS2Gg8Y-1">
          <mxGeometry relative="1" as="geometry" />
        </mxCell>
        <mxCell id="m1UoJA5h-3axytS2Gg8Y-3" value="&lt;div&gt;password&lt;/div&gt;" style="ellipse;whiteSpace=wrap;html=1;align=center;" vertex="1" parent="1">
          <mxGeometry x="210" y="20" width="100" height="40" as="geometry" />
        </mxCell>
        <mxCell id="m1UoJA5h-3axytS2Gg8Y-10" style="rounded=0;orthogonalLoop=1;jettySize=auto;html=1;entryX=1;entryY=0.25;entryDx=0;entryDy=0;endArrow=none;endFill=0;" edge="1" parent="1" source="m1UoJA5h-3axytS2Gg8Y-4" target="m1UoJA5h-3axytS2Gg8Y-1">
          <mxGeometry relative="1" as="geometry" />
        </mxCell>
        <mxCell id="m1UoJA5h-3axytS2Gg8Y-4" value="email" style="ellipse;whiteSpace=wrap;html=1;align=center;" vertex="1" parent="1">
          <mxGeometry x="280" y="70" width="100" height="40" as="geometry" />
        </mxCell>
        <mxCell id="m1UoJA5h-3axytS2Gg8Y-7" style="rounded=0;orthogonalLoop=1;jettySize=auto;html=1;strokeColor=default;endArrow=none;endFill=0;" edge="1" parent="1" source="m1UoJA5h-3axytS2Gg8Y-5" target="m1UoJA5h-3axytS2Gg8Y-1">
          <mxGeometry relative="1" as="geometry" />
        </mxCell>
        <mxCell id="m1UoJA5h-3axytS2Gg8Y-5" value="&lt;div&gt;userID&lt;/div&gt;" style="ellipse;whiteSpace=wrap;html=1;align=center;fontStyle=4;" vertex="1" parent="1">
          <mxGeometry x="10" y="70" width="100" height="40" as="geometry" />
        </mxCell>
        <mxCell id="m1UoJA5h-3axytS2Gg8Y-12" value="&lt;div&gt;Admin&lt;/div&gt;" style="whiteSpace=wrap;html=1;align=center;" vertex="1" parent="1">
          <mxGeometry x="50" y="320" width="100" height="40" as="geometry" />
        </mxCell>
        <mxCell id="m1UoJA5h-3axytS2Gg8Y-13" value="Player" style="whiteSpace=wrap;html=1;align=center;" vertex="1" parent="1">
          <mxGeometry x="330" y="320" width="100" height="40" as="geometry" />
        </mxCell>
        <mxCell id="m1UoJA5h-3axytS2Gg8Y-14" value="Game" style="whiteSpace=wrap;html=1;align=center;" vertex="1" parent="1">
          <mxGeometry x="330" y="560" width="100" height="40" as="geometry" />
        </mxCell>
        <mxCell id="m1UoJA5h-3axytS2Gg8Y-15" value="Tournament" style="whiteSpace=wrap;html=1;align=center;" vertex="1" parent="1">
          <mxGeometry x="50" y="560" width="100" height="40" as="geometry" />
        </mxCell>
        <mxCell id="m1UoJA5h-3axytS2Gg8Y-16" value="Chat" style="whiteSpace=wrap;html=1;align=center;" vertex="1" parent="1">
          <mxGeometry x="660" y="170" width="100" height="40" as="geometry" />
        </mxCell>
        <mxCell id="m1UoJA5h-3axytS2Gg8Y-17" value="Message" style="whiteSpace=wrap;html=1;align=center;" vertex="1" parent="1">
          <mxGeometry x="660" y="420" width="100" height="40" as="geometry" />
        </mxCell>
        <mxCell id="m1UoJA5h-3axytS2Gg8Y-18" value="tournamentID" style="ellipse;whiteSpace=wrap;html=1;align=center;fontStyle=4;" vertex="1" parent="1">
          <mxGeometry y="610" width="100" height="40" as="geometry" />
        </mxCell>
        <mxCell id="m1UoJA5h-3axytS2Gg8Y-29" style="rounded=0;orthogonalLoop=1;jettySize=auto;html=1;entryX=0.75;entryY=1;entryDx=0;entryDy=0;endArrow=none;endFill=0;" edge="1" parent="1" source="m1UoJA5h-3axytS2Gg8Y-19" target="m1UoJA5h-3axytS2Gg8Y-15">
          <mxGeometry relative="1" as="geometry" />
        </mxCell>
        <mxCell id="m1UoJA5h-3axytS2Gg8Y-19" value="&lt;div&gt;winnerID&lt;/div&gt;" style="ellipse;whiteSpace=wrap;html=1;align=center;" vertex="1" parent="1">
          <mxGeometry x="110" y="610" width="100" height="40" as="geometry" />
        </mxCell>
        <mxCell id="m1UoJA5h-3axytS2Gg8Y-30" style="rounded=0;orthogonalLoop=1;jettySize=auto;html=1;entryX=0.5;entryY=1;entryDx=0;entryDy=0;endArrow=none;endFill=0;" edge="1" parent="1" source="m1UoJA5h-3axytS2Gg8Y-20" target="m1UoJA5h-3axytS2Gg8Y-14">
          <mxGeometry relative="1" as="geometry" />
        </mxCell>
        <mxCell id="m1UoJA5h-3axytS2Gg8Y-20" value="word" style="ellipse;whiteSpace=wrap;html=1;align=center;" vertex="1" parent="1">
          <mxGeometry x="330" y="650" width="100" height="40" as="geometry" />
        </mxCell>
        <mxCell id="m1UoJA5h-3axytS2Gg8Y-32" style="rounded=0;orthogonalLoop=1;jettySize=auto;html=1;entryX=1;entryY=0.75;entryDx=0;entryDy=0;endArrow=none;endFill=0;" edge="1" parent="1" source="m1UoJA5h-3axytS2Gg8Y-21" target="m1UoJA5h-3axytS2Gg8Y-14">
          <mxGeometry relative="1" as="geometry" />
        </mxCell>
        <mxCell id="m1UoJA5h-3axytS2Gg8Y-21" value="winnerID" style="ellipse;whiteSpace=wrap;html=1;align=center;" vertex="1" parent="1">
          <mxGeometry x="420" y="610" width="100" height="40" as="geometry" />
        </mxCell>
        <mxCell id="m1UoJA5h-3axytS2Gg8Y-31" style="rounded=0;orthogonalLoop=1;jettySize=auto;html=1;entryX=0;entryY=0.5;entryDx=0;entryDy=0;endArrow=none;endFill=0;" edge="1" parent="1" source="m1UoJA5h-3axytS2Gg8Y-22" target="m1UoJA5h-3axytS2Gg8Y-14">
          <mxGeometry relative="1" as="geometry" />
        </mxCell>
        <mxCell id="m1UoJA5h-3axytS2Gg8Y-22" value="gameID" style="ellipse;whiteSpace=wrap;html=1;align=center;fontStyle=4;" vertex="1" parent="1">
          <mxGeometry x="250" y="610" width="100" height="40" as="geometry" />
        </mxCell>
        <mxCell id="m1UoJA5h-3axytS2Gg8Y-35" style="rounded=0;orthogonalLoop=1;jettySize=auto;html=1;entryX=0.25;entryY=1;entryDx=0;entryDy=0;endArrow=none;endFill=0;" edge="1" parent="1" source="m1UoJA5h-3axytS2Gg8Y-23" target="m1UoJA5h-3axytS2Gg8Y-17">
          <mxGeometry relative="1" as="geometry" />
        </mxCell>
        <mxCell id="m1UoJA5h-3axytS2Gg8Y-23" value="messageID" style="ellipse;whiteSpace=wrap;html=1;align=center;fontStyle=4;" vertex="1" parent="1">
          <mxGeometry x="580" y="480" width="100" height="40" as="geometry" />
        </mxCell>
        <mxCell id="m1UoJA5h-3axytS2Gg8Y-36" style="rounded=0;orthogonalLoop=1;jettySize=auto;html=1;entryX=0.5;entryY=1;entryDx=0;entryDy=0;endArrow=none;endFill=0;" edge="1" parent="1" source="m1UoJA5h-3axytS2Gg8Y-24" target="m1UoJA5h-3axytS2Gg8Y-17">
          <mxGeometry relative="1" as="geometry" />
        </mxCell>
        <mxCell id="m1UoJA5h-3axytS2Gg8Y-24" value="text" style="ellipse;whiteSpace=wrap;html=1;align=center;" vertex="1" parent="1">
          <mxGeometry x="660" y="530" width="100" height="40" as="geometry" />
        </mxCell>
        <mxCell id="m1UoJA5h-3axytS2Gg8Y-37" style="rounded=0;orthogonalLoop=1;jettySize=auto;html=1;entryX=0.75;entryY=1;entryDx=0;entryDy=0;endArrow=none;endFill=0;" edge="1" parent="1" source="m1UoJA5h-3axytS2Gg8Y-25" target="m1UoJA5h-3axytS2Gg8Y-17">
          <mxGeometry relative="1" as="geometry" />
        </mxCell>
        <mxCell id="m1UoJA5h-3axytS2Gg8Y-25" value="&lt;div&gt;dateAndTime&lt;/div&gt;" style="ellipse;whiteSpace=wrap;html=1;align=center;" vertex="1" parent="1">
          <mxGeometry x="740" y="480" width="100" height="40" as="geometry" />
        </mxCell>
        <mxCell id="m1UoJA5h-3axytS2Gg8Y-28" style="rounded=0;orthogonalLoop=1;jettySize=auto;html=1;entryX=0.25;entryY=1;entryDx=0;entryDy=0;endArrow=none;endFill=0;" edge="1" parent="1" source="m1UoJA5h-3axytS2Gg8Y-18" target="m1UoJA5h-3axytS2Gg8Y-15">
          <mxGeometry relative="1" as="geometry" />
        </mxCell>
        <mxCell id="m1UoJA5h-3axytS2Gg8Y-34" style="rounded=0;orthogonalLoop=1;jettySize=auto;html=1;endArrow=none;endFill=0;" edge="1" parent="1" source="m1UoJA5h-3axytS2Gg8Y-33" target="m1UoJA5h-3axytS2Gg8Y-16">
          <mxGeometry relative="1" as="geometry" />
        </mxCell>
        <mxCell id="m1UoJA5h-3axytS2Gg8Y-33" value="chatID" style="ellipse;whiteSpace=wrap;html=1;align=center;fontStyle=4;" vertex="1" parent="1">
          <mxGeometry x="660" y="90" width="100" height="40" as="geometry" />
        </mxCell>
        <mxCell id="m1UoJA5h-3axytS2Gg8Y-38" value="Has" style="shape=rhombus;perimeter=rhombusPerimeter;whiteSpace=wrap;html=1;align=center;" vertex="1" parent="1">
          <mxGeometry x="430" y="160" width="120" height="60" as="geometry" />
        </mxCell>
        <mxCell id="m1UoJA5h-3axytS2Gg8Y-39" value="Has" style="shape=rhombus;perimeter=rhombusPerimeter;whiteSpace=wrap;html=1;align=center;" vertex="1" parent="1">
          <mxGeometry x="650" y="290" width="120" height="60" as="geometry" />
        </mxCell>
        <mxCell id="m1UoJA5h-3axytS2Gg8Y-40" value="Make" style="shape=rhombus;perimeter=rhombusPerimeter;whiteSpace=wrap;html=1;align=center;" vertex="1" parent="1">
          <mxGeometry x="40" y="440" width="120" height="60" as="geometry" />
        </mxCell>
        <mxCell id="m1UoJA5h-3axytS2Gg8Y-41" value="Play" style="shape=rhombus;perimeter=rhombusPerimeter;whiteSpace=wrap;html=1;align=center;" vertex="1" parent="1">
          <mxGeometry x="320" y="440" width="120" height="60" as="geometry" />
        </mxCell>
        <mxCell id="m1UoJA5h-3axytS2Gg8Y-42" value="Play" style="shape=rhombus;perimeter=rhombusPerimeter;whiteSpace=wrap;html=1;align=center;" vertex="1" parent="1">
          <mxGeometry x="170" y="440" width="120" height="60" as="geometry" />
        </mxCell>
        <mxCell id="m1UoJA5h-3axytS2Gg8Y-44" value="" style="fontSize=12;html=1;endArrow=ERone;endFill=1;rounded=0;entryX=0.5;entryY=1;entryDx=0;entryDy=0;exitX=0.5;exitY=0;exitDx=0;exitDy=0;" edge="1" parent="1" source="m1UoJA5h-3axytS2Gg8Y-39" target="m1UoJA5h-3axytS2Gg8Y-16">
          <mxGeometry width="100" height="100" relative="1" as="geometry">
            <mxPoint x="540" y="370" as="sourcePoint" />
            <mxPoint x="640" y="270" as="targetPoint" />
          </mxGeometry>
        </mxCell>
        <mxCell id="m1UoJA5h-3axytS2Gg8Y-45" value="" style="fontSize=12;html=1;endArrow=ERzeroToMany;endFill=1;rounded=0;entryX=0.5;entryY=0;entryDx=0;entryDy=0;exitX=0.5;exitY=1;exitDx=0;exitDy=0;" edge="1" parent="1" source="m1UoJA5h-3axytS2Gg8Y-39" target="m1UoJA5h-3axytS2Gg8Y-17">
          <mxGeometry width="100" height="100" relative="1" as="geometry">
            <mxPoint x="380" y="470" as="sourcePoint" />
            <mxPoint x="480" y="370" as="targetPoint" />
          </mxGeometry>
        </mxCell>
        <mxCell id="m1UoJA5h-3axytS2Gg8Y-46" value="" style="fontSize=12;html=1;endArrow=ERoneToMany;rounded=0;exitX=1;exitY=0.5;exitDx=0;exitDy=0;" edge="1" parent="1" source="m1UoJA5h-3axytS2Gg8Y-38" target="m1UoJA5h-3axytS2Gg8Y-16">
          <mxGeometry width="100" height="100" relative="1" as="geometry">
            <mxPoint x="380" y="380" as="sourcePoint" />
            <mxPoint x="480" y="280" as="targetPoint" />
          </mxGeometry>
        </mxCell>
        <mxCell id="m1UoJA5h-3axytS2Gg8Y-48" value="" style="fontSize=12;html=1;endArrow=ERmany;rounded=0;exitX=0.5;exitY=1;exitDx=0;exitDy=0;entryX=0.5;entryY=0;entryDx=0;entryDy=0;" edge="1" parent="1" source="m1UoJA5h-3axytS2Gg8Y-41" target="m1UoJA5h-3axytS2Gg8Y-14">
          <mxGeometry width="100" height="100" relative="1" as="geometry">
            <mxPoint x="170" y="530" as="sourcePoint" />
            <mxPoint x="370" y="520" as="targetPoint" />
          </mxGeometry>
        </mxCell>
        <mxCell id="m1UoJA5h-3axytS2Gg8Y-49" value="" style="fontSize=12;html=1;endArrow=ERmany;rounded=0;exitX=0.5;exitY=1;exitDx=0;exitDy=0;entryX=1;entryY=0.5;entryDx=0;entryDy=0;edgeStyle=orthogonalEdgeStyle;" edge="1" parent="1" source="m1UoJA5h-3axytS2Gg8Y-42" target="m1UoJA5h-3axytS2Gg8Y-15">
          <mxGeometry width="100" height="100" relative="1" as="geometry">
            <mxPoint x="249.17" y="500" as="sourcePoint" />
            <mxPoint x="249.17" y="560" as="targetPoint" />
          </mxGeometry>
        </mxCell>
        <mxCell id="m1UoJA5h-3axytS2Gg8Y-51" value="" style="fontSize=12;html=1;endArrow=ERmany;rounded=0;exitX=0.5;exitY=0;exitDx=0;exitDy=0;entryX=0.5;entryY=1;entryDx=0;entryDy=0;" edge="1" parent="1" source="m1UoJA5h-3axytS2Gg8Y-41" target="m1UoJA5h-3axytS2Gg8Y-13">
          <mxGeometry width="100" height="100" relative="1" as="geometry">
            <mxPoint x="440" y="330" as="sourcePoint" />
            <mxPoint x="440" y="390" as="targetPoint" />
          </mxGeometry>
        </mxCell>
        <mxCell id="m1UoJA5h-3axytS2Gg8Y-52" value="" style="fontSize=12;html=1;endArrow=ERmany;rounded=0;exitX=0.5;exitY=0;exitDx=0;exitDy=0;entryX=0;entryY=0.5;entryDx=0;entryDy=0;edgeStyle=orthogonalEdgeStyle;" edge="1" parent="1" source="m1UoJA5h-3axytS2Gg8Y-42" target="m1UoJA5h-3axytS2Gg8Y-13">
          <mxGeometry width="100" height="100" relative="1" as="geometry">
            <mxPoint x="220" y="430" as="sourcePoint" />
            <mxPoint x="220" y="350" as="targetPoint" />
          </mxGeometry>
        </mxCell>
        <mxCell id="m1UoJA5h-3axytS2Gg8Y-53" value="" style="fontSize=12;html=1;endArrow=ERone;endFill=1;rounded=0;entryX=0.5;entryY=1;entryDx=0;entryDy=0;exitX=0.5;exitY=0;exitDx=0;exitDy=0;" edge="1" parent="1" source="m1UoJA5h-3axytS2Gg8Y-40" target="m1UoJA5h-3axytS2Gg8Y-12">
          <mxGeometry width="100" height="100" relative="1" as="geometry">
            <mxPoint x="30" y="420" as="sourcePoint" />
            <mxPoint x="100" y="320" as="targetPoint" />
          </mxGeometry>
        </mxCell>
        <mxCell id="m1UoJA5h-3axytS2Gg8Y-54" value="" style="fontSize=12;html=1;endArrow=ERmany;rounded=0;exitX=0.5;exitY=1;exitDx=0;exitDy=0;entryX=0.5;entryY=0;entryDx=0;entryDy=0;" edge="1" parent="1" source="m1UoJA5h-3axytS2Gg8Y-40" target="m1UoJA5h-3axytS2Gg8Y-15">
          <mxGeometry width="100" height="100" relative="1" as="geometry">
            <mxPoint x="240" y="510" as="sourcePoint" />
            <mxPoint x="180" y="590" as="targetPoint" />
          </mxGeometry>
        </mxCell>
        <mxCell id="m1UoJA5h-3axytS2Gg8Y-55" value="" style="fontSize=12;html=1;endArrow=ERoneToMany;rounded=0;entryX=0.5;entryY=0;entryDx=0;entryDy=0;exitX=0;exitY=0.5;exitDx=0;exitDy=0;edgeStyle=orthogonalEdgeStyle;" edge="1" parent="1" source="m1UoJA5h-3axytS2Gg8Y-38" target="m1UoJA5h-3axytS2Gg8Y-13">
          <mxGeometry width="100" height="100" relative="1" as="geometry">
            <mxPoint x="480" y="430" as="sourcePoint" />
            <mxPoint x="580" y="330" as="targetPoint" />
          </mxGeometry>
        </mxCell>
        <mxCell id="m1UoJA5h-3axytS2Gg8Y-57" value="" style="shape=link;html=1;rounded=0;exitX=0.5;exitY=1;exitDx=0;exitDy=0;" edge="1" parent="1" source="m1UoJA5h-3axytS2Gg8Y-1">
          <mxGeometry relative="1" as="geometry">
            <mxPoint x="70" y="240" as="sourcePoint" />
            <mxPoint x="200" y="200" as="targetPoint" />
          </mxGeometry>
        </mxCell>
        <mxCell id="m1UoJA5h-3axytS2Gg8Y-58" value="" style="resizable=0;html=1;whiteSpace=wrap;align=right;verticalAlign=bottom;" connectable="0" vertex="1" parent="m1UoJA5h-3axytS2Gg8Y-57">
          <mxGeometry x="1" relative="1" as="geometry" />
        </mxCell>
        <mxCell id="m1UoJA5h-3axytS2Gg8Y-59" value="d" style="ellipse;whiteSpace=wrap;html=1;aspect=fixed;" vertex="1" parent="1">
          <mxGeometry x="190" y="200" width="20" height="20" as="geometry" />
        </mxCell>
        <mxCell id="m1UoJA5h-3axytS2Gg8Y-62" value="" style="endArrow=none;html=1;rounded=0;entryX=0;entryY=1;entryDx=0;entryDy=0;exitX=0.5;exitY=0;exitDx=0;exitDy=0;" edge="1" parent="1" source="m1UoJA5h-3axytS2Gg8Y-12" target="m1UoJA5h-3axytS2Gg8Y-59">
          <mxGeometry width="50" height="50" relative="1" as="geometry">
            <mxPoint x="115" y="290" as="sourcePoint" />
            <mxPoint x="165" y="240" as="targetPoint" />
          </mxGeometry>
        </mxCell>
        <mxCell id="m1UoJA5h-3axytS2Gg8Y-63" value="" style="endArrow=none;html=1;rounded=0;exitX=0;exitY=0;exitDx=0;exitDy=0;entryX=1;entryY=1;entryDx=0;entryDy=0;" edge="1" parent="1" source="m1UoJA5h-3axytS2Gg8Y-13" target="m1UoJA5h-3axytS2Gg8Y-59">
          <mxGeometry width="50" height="50" relative="1" as="geometry">
            <mxPoint x="205" y="310" as="sourcePoint" />
            <mxPoint x="255" y="260" as="targetPoint" />
          </mxGeometry>
        </mxCell>
        <mxCell id="m1UoJA5h-3axytS2Gg8Y-64" value="" style="shape=requiredInterface;html=1;verticalLabelPosition=bottom;sketch=0;rotation=135;" vertex="1" parent="1">
          <mxGeometry x="140" y="260" width="10" height="20" as="geometry" />
        </mxCell>
        <mxCell id="m1UoJA5h-3axytS2Gg8Y-66" value="" style="shape=requiredInterface;html=1;verticalLabelPosition=bottom;sketch=0;rotation=40;" vertex="1" parent="1">
          <mxGeometry x="270" y="263" width="10" height="20" as="geometry" />
        </mxCell>
      </root>
    </mxGraphModel>
  </diagram>
</mxfile>
